<?xml version="1.0" encoding="utf-8"?>
<!-- Generator: Adobe Illustrator 16.0.0, SVG Export Plug-In . SVG Version: 6.00 Build 0)  -->
<!DOCTYPE svg PUBLIC "-//W3C//DTD SVG 1.1//EN" "http://www.w3.org/Graphics/SVG/1.1/DTD/svg11.dtd">
<svg version="1.1" id="Layer_1" xmlns="http://www.w3.org/2000/svg" xmlns:xlink="http://www.w3.org/1999/xlink" x="0px" y="0px"
	 width="800px" height="253.427px" viewBox="0 0 800 253.427" enable-background="new 0 0 800 253.427" xml:space="preserve">
<g>
	<path fill-rule="evenodd" clip-rule="evenodd" fill="#FF5A5F" d="M422.851,69.211c0,8.868-7.144,16.006-16.011,16.006
		c-8.864,0-16.007-7.139-16.007-16.006c0-8.864,6.898-16.008,16.007-16.008C415.951,53.451,422.851,60.591,422.851,69.211
		L422.851,69.211z M356.849,101.473c0,1.477,0,3.941,0,3.941s-7.635-9.852-23.89-9.852c-26.843,0-47.777,20.44-47.777,48.765
		c0,28.075,20.686,48.764,47.777,48.764c16.503,0,23.89-10.103,23.89-10.103v4.188c0,1.97,1.477,3.45,3.446,3.45h19.949V98.026
		c0,0-18.225,0-19.949,0C358.326,98.026,356.849,99.751,356.849,101.473L356.849,101.473z M356.849,160.826
		c-3.694,5.419-11.083,10.097-19.948,10.097c-15.764,0-27.829-9.852-27.829-26.596c0-16.748,12.065-26.599,27.829-26.599
		c8.619,0,16.498,4.925,19.948,10.096V160.826L356.849,160.826z M395.022,98.026h23.646v92.601h-23.646V98.026L395.022,98.026z
		 M748.181,95.562c-16.256,0-23.888,9.852-23.888,9.852V53.451H700.65v137.176c0,0,18.225,0,19.948,0
		c1.971,0,3.449-1.725,3.449-3.45v-4.188l0,0c0,0,7.632,10.103,23.888,10.103c26.841,0,47.78-20.688,47.78-48.764
		C795.716,116.251,774.776,95.562,748.181,95.562L748.181,95.562z M744.241,170.678c-9.112,0-16.255-4.678-19.948-10.096V127.58
		c3.693-4.926,11.576-10.097,19.948-10.097c15.761,0,27.832,9.849,27.832,26.592C772.073,160.826,760.002,170.678,744.241,170.678
		L744.241,170.678z M688.334,135.703v55.168h-23.643v-52.459c0-15.266-4.923-21.424-18.225-21.424
		c-7.142,0-14.529,3.694-19.207,9.112v64.527h-23.643V98.026h18.719c1.97,0,3.443,1.725,3.443,3.446v3.941
		c6.898-7.144,16.01-9.852,25.122-9.852c10.348,0,18.965,2.957,25.862,8.868C685.136,111.325,688.334,120.189,688.334,135.703
		L688.334,135.703z M546.236,95.562c-16.255,0-23.888,9.852-23.888,9.852V53.451h-23.642v137.176c0,0,18.224,0,19.948,0
		c1.969,0,3.442-1.725,3.442-3.45v-4.188l0,0c0,0,7.639,10.103,23.894,10.103c26.841,0,47.773-20.688,47.773-48.764
		C594.009,116.251,573.076,95.562,546.236,95.562L546.236,95.562z M542.291,170.678c-9.105,0-16.249-4.678-19.942-10.096V127.58
		c3.693-4.926,11.57-10.097,19.942-10.097c15.766,0,27.831,9.849,27.831,26.592C570.122,160.826,558.057,170.678,542.291,170.678
		L542.291,170.678z M478.262,95.562c7.144,0,10.837,1.232,10.837,1.232v21.918c0,0-19.704-6.647-32.014,7.388v64.771h-23.643V98.026
		c0,0,18.224,0,19.948,0c1.97,0,3.443,1.725,3.443,3.446v3.941C461.268,100.243,470.875,95.562,478.262,95.562L478.262,95.562z
		 M232.727,182.248c-1.233-2.953-2.464-6.152-3.697-8.86c-1.968-4.435-3.938-8.623-5.662-12.562l-0.248-0.244
		c-16.992-36.943-35.22-74.377-54.424-111.32l-0.74-1.477c-1.973-3.694-3.942-7.635-5.911-11.573
		c-2.465-4.434-4.926-9.116-8.868-13.546c-7.879-9.852-19.209-15.27-31.274-15.27c-12.316,0-23.397,5.418-31.525,14.775
		c-3.694,4.438-6.403,9.115-8.864,13.546c-1.973,3.941-3.941,7.883-5.911,11.576l-0.74,1.477
		C55.899,85.71,37.427,123.146,20.436,160.086l-0.249,0.496c-1.721,3.938-3.694,8.127-5.662,12.555
		c-1.233,2.708-2.462,5.669-3.694,8.866c-3.202,9.113-4.187,17.735-2.957,26.597c2.708,18.476,15.022,33.99,32.017,40.888
		c6.403,2.704,13.051,3.939,19.946,3.939c1.973,0,4.437-0.245,6.407-0.496c8.126-0.984,16.499-3.693,24.626-8.372
		c10.096-5.662,19.704-13.79,30.537-25.611c10.837,11.821,20.689,19.949,30.541,25.611c8.124,4.679,16.499,7.388,24.626,8.372
		c1.97,0.251,4.434,0.496,6.403,0.496c6.895,0,13.79-1.235,19.948-3.939c17.24-6.897,29.306-22.657,32.014-40.888
		C236.914,199.983,235.925,191.367,232.727,182.248L232.727,182.248z M121.655,195.054c-13.298-16.744-21.917-32.503-24.874-45.804
		c-1.233-5.663-1.477-10.587-0.74-15.021c0.492-3.944,1.972-7.39,3.941-10.343c4.681-6.651,12.561-10.837,21.673-10.837
		c9.112,0,17.24,3.939,21.67,10.837c1.973,2.954,3.449,6.399,3.945,10.343c0.737,4.434,0.489,9.602-0.74,15.021
		C143.573,162.307,134.954,178.065,121.655,195.054L121.655,195.054z M219.918,206.631c-1.724,12.805-10.341,23.893-22.41,28.816
		c-5.911,2.464-12.313,3.204-18.716,2.464c-6.158-0.74-12.316-2.709-18.72-6.402c-8.864-4.929-17.728-12.562-28.072-23.894
		c16.254-19.949,26.103-38.166,29.796-54.421c1.726-7.639,1.973-14.531,1.233-20.94c-0.984-6.154-3.201-11.817-6.651-16.743
		c-7.635-11.081-20.437-17.484-34.723-17.484c-14.282,0-27.088,6.647-34.727,17.484c-3.445,4.926-5.662,10.589-6.647,16.743
		c-0.984,6.409-0.74,13.546,1.233,20.94c3.69,16.255,13.791,34.723,29.797,54.672c-10.096,11.325-19.209,18.964-28.077,23.888
		c-6.402,3.693-12.558,5.662-18.715,6.402c-6.651,0.74-13.054-0.245-18.717-2.466c-12.069-4.922-20.685-16.003-22.409-28.809
		c-0.74-6.158-0.249-12.317,2.216-19.216c0.737-2.457,1.969-4.923,3.199-7.876c1.724-3.938,3.696-8.128,5.666-12.316l0.248-0.489
		c16.992-36.699,35.216-74.132,54.18-110.58l0.74-1.477c1.969-3.696,3.938-7.635,5.911-11.328c1.969-3.942,4.187-7.636,6.892-10.837
		c5.174-5.911,12.069-9.112,19.704-9.112c7.636,0,14.531,3.202,19.705,9.112c2.706,3.201,4.922,6.895,6.895,10.837
		c1.968,3.693,3.938,7.632,5.911,11.328l0.736,1.477C174.11,93.1,192.337,130.53,209.33,167.229v0.244
		c1.969,3.938,3.693,8.378,5.663,12.316c1.231,2.953,2.464,5.419,3.201,7.876C220.167,194.069,220.907,200.228,219.918,206.631
		L219.918,206.631z"/>
</g>
</svg>
